<svg xmlns="http://www.w3.org/2000/svg" viewBox="0 0 400 80">
  <defs>
    <pattern id="dots" patternUnits="userSpaceOnUse" width="4" height="4">
      <circle cx="2" cy="2" r="1.5" fill="white"/>
    </pattern>
    <clipPath id="textClip">
      <path d="M1196 110Q1031 -41 774 -41Q456 -41 274 163Q92 368 92 725Q92 1111 299 1320Q479 1502 757 1502Q1129 1502 1301 1258Q1396 1121 1403 983H1095Q1065 1089 1018 1143Q934 1239 769 1239Q601 1239 504.0 1103.5Q407 968 407 720Q407 472 509.5 348.5Q612 225 770 225Q932 225 1017 331Q1064 388 1095 502H1400Q1360 261 1196 110Z" transform="translate(10.00,62.00) scale(0.040127,-0.040127)"/>
      <path d="M1035 0V658H459V0H154V1474H459V912H1035V1474H1341V0Z" transform="translate(65.72,62.00) scale(0.040127,-0.040127)"/>
      <path d="M1019 303H476L374 0H52L578 1474H926L1448 0H1114ZM933 557 749 1137 559 557Z" transform="translate(121.45,62.00) scale(0.040127,-0.040127)"/>
      <path d="M1348 0H1040L438 1047V0H151V1474H474L1061 445V1474H1348Z" transform="translate(177.17,62.00) scale(0.040127,-0.040127)"/>
      <path d="M1348 0H1040L438 1047V0H151V1474H474L1061 445V1474H1348Z" transform="translate(232.89,62.00) scale(0.040127,-0.040127)"/>
      <path d="M1182 644H466V265H1282V0H165V1474H1246V1213H466V900H1182Z" transform="translate(288.61,62.00) scale(0.040127,-0.040127)"/>
      <path d="M156 1474H464V265H1194V0H156Z" transform="translate(339.80,62.00) scale(0.040127,-0.040127)"/>
    </clipPath>
  </defs>
  <rect width="100%" height="100%" fill="url(#dots)" clip-path="url(#textClip)"/>
</svg>
